<?xml version="1.0" standalone="no"?><!DOCTYPE svg PUBLIC "-//W3C//DTD SVG 1.1//EN" "http://www.w3.org/Graphics/SVG/1.1/DTD/svg11.dtd"><svg class="icon" width="200px" height="200.00px" viewBox="0 0 1024 1024" version="1.1" xmlns="http://www.w3.org/2000/svg"><path d="M617.984 752.64c-14.336 0-25.6-11.264-25.6-25.6v-166.4c0-14.336 11.264-25.6 25.6-25.6s25.6 11.264 25.6 25.6v166.4c0 13.824-11.776 25.6-25.6 25.6z m-299.008 0c-14.336 0-25.6-11.264-25.6-25.6v-166.4c0-14.336 11.264-25.6 25.6-25.6s25.6 11.264 25.6 25.6v166.4c0 6.656-2.56 13.312-7.68 17.92-4.608 4.608-11.264 7.68-17.92 7.68z m448.512 0c-14.336 0-25.6-11.264-25.6-25.6V453.632c0-14.336 11.264-25.6 25.6-25.6s25.6 11.264 25.6 25.6V727.04c0 13.824-11.776 25.6-25.6 25.6z m-299.008 0c-14.336 0-25.6-11.264-25.6-25.6V453.632c0-14.336 11.264-25.6 25.6-25.6s25.6 11.264 25.6 25.6V727.04c0 13.824-11.776 25.6-25.6 25.6z"  /><path d="M858.624 884.736H226.816c-48.128 0-87.552-39.424-87.552-87.552V165.376c0-14.336 11.776-26.112 26.112-26.112s26.112 11.776 26.112 26.112v631.296c0 19.456 15.872 35.328 35.328 35.328h631.296c14.336 0 26.112 11.776 26.112 26.112s-11.264 26.624-25.6 26.624z"  /><path d="M293.376 438.784c-8.192 0-15.872-3.584-20.992-10.752-8.704-11.776-5.632-28.16 5.632-36.352l197.12-142.336c11.264-8.192 26.112-6.144 35.328 4.096l96.256 113.152 175.616-117.76c11.776-8.192 28.16-4.608 36.352 7.168s4.608 28.16-7.168 36.352l-195.072 130.56c-11.264 7.168-25.6 5.12-34.304-4.608L486.4 305.152 308.736 433.664c-4.608 3.072-10.24 5.12-15.36 5.12z"  /></svg>